<svg xmlns="http://www.w3.org/2000/svg" width="735.474" height="735.474" viewBox="0 0 735.474 735.474">
  <path id="Tracé_14" data-name="Tracé 14" d="M367.737,1.2a372.435,372.435,0,0,0-37.478,1.892A365.986,365.986,0,0,0,3.092,330.259a372.046,372.046,0,0,0,0,74.955A365.986,365.986,0,0,0,330.259,732.381a372.435,372.435,0,0,0,37.478,1.892c12.317,0,24.74-.618,36.923-1.837,12.009-1.2,24.079-3.015,35.874-5.392a364.433,364.433,0,0,0,129.5-53.605A367.755,367.755,0,0,0,702.917,516.277a364.825,364.825,0,0,0,22.3-67.222c2.65-11.694,4.746-23.672,6.232-35.6,1.506-12.1,2.421-24.443,2.719-36.694.072-2.968.109-6,.109-9.022a369.566,369.566,0,0,0-7.9-76.106,363.053,363.053,0,0,0-22.555-70.444,368.344,368.344,0,0,0-165.607-178,363.964,363.964,0,0,0-125.036-39.2A371.627,371.627,0,0,0,367.737,1.2m0-1.2C491.219,0,600.486,60.862,667.3,154.4a365.816,365.816,0,0,1,68.172,213.336c0,3.046-.037,6.084-.109,9.051-4.839,198.946-167.579,358.686-367.628,358.686C164.641,735.474,0,570.832,0,367.737S164.641,0,367.737,0Z" fill="#abc4ff"/>
</svg>
